<?xml version='1.0' encoding='iso-8859-1'?>
<svg version="1.1" xmlns="http://www.w3.org/2000/svg" viewBox="0 0 409.222 409.222" xmlns:xlink="http://www.w3.org/1999/xlink" enable-background="new 0 0 409.222 409.222">
  <path d="m174.948,46.688c0-8.603 5.399-14.394 10.163-19.503 4.913-5.27 9.156-9.821 9.511-17.639 0.25-5.518 4.923-9.78 10.443-9.536 5.517,0.25 9.787,4.926 9.536,10.443-0.688,15.167-9.218,24.316-14.862,30.37-1.782,1.912-4.465,4.79-4.791,5.936 0.039,5.295 4.359,9.592 9.664,9.592 5.329,0 9.664-4.335 9.664-9.663 0-5.523 4.477-10 10-10s10,4.477 10,10c0,16.356-13.307,29.663-29.664,29.663s-29.664-13.306-29.664-29.663zm-2.664,196.58h-23.758c-5.523,2.84217e-14-10,4.477-10,10s4.477,10 10,10h13.758l-.004,135.954c0,5.523 4.477,10 10,10 5.522,0 10-4.477 10-10l.004-145.954c0-2.652-1.054-5.196-2.929-7.071-1.876-1.876-4.419-2.929-7.071-2.929zm-94.788,0h-57.495v-233.268c-3.55271e-15-5.523-4.477-10-10-10s-10,4.477-10,10v389.222c0,5.523 4.477,10 10,10s10-4.477 10-10v-135.954h57.495c5.523,0 10-4.477 10-10s-4.477-10-10-10zm321.725-243.268c-5.523,0-10,4.477-10,10v233.268h-57.495c-5.523,0-10,4.477-10,10s4.477,10 10,10h57.495v135.954c0,5.523 4.477,10 10,10s10-4.477 10-10v-389.222c0-5.523-4.477-10-10-10zm-72.978,165.958h-20.032v233.263c0,5.523-4.477,10-10,10s-10-4.477-10-10v-233.263h-163.2v233.263c0,5.523-4.477,10-10,10s-10-4.477-10-10v-233.263h-20.031c-5.523,0-10-4.477-10-10s4.477-10 10-10h91.68v-42.951c0-5.523 4.477-10 10-10h39.903c5.523,0 10,4.477 10,10v42.951h91.68c5.523,0 10,4.477 10,10s-4.477,10-10,10zm-111.68-52.951h-19.903v32.951h19.903v-32.951zm46.135,130.261l-23.754-.004c-0.001,0-0.001,0-0.002,0-2.651,0-5.195,1.053-7.07,2.928-1.876,1.875-2.93,4.419-2.93,7.072v145.958c0,5.523 4.477,10 10,10s10-4.477 10-10v-135.957l13.752,.002c0.001,0 0.001,0 0.001,0 5.522,0 10-4.476 10-9.998 0.002-5.522-4.474-10-9.997-10.001z"/>
</svg>
